<svg xmlns="http://www.w3.org/2000/svg" viewBox="0 0 512 512" width="512" height="512">
  <!-- Background -->
  <rect width="512" height="512" rx="100" fill="#2C1810"/>
  <!-- Golden arc (bread crust shape) -->
  <path d="M104 350 Q256 110 408 350 Z" fill="#C4962A"/>
  <!-- Bread body -->
  <ellipse cx="256" cy="340" rx="152" ry="62" fill="#E8B84B"/>
  <!-- Score lines -->
  <line x1="210" y1="284" x2="194" y2="348" stroke="#C4962A" stroke-width="7" stroke-linecap="round"/>
  <line x1="256" y1="272" x2="256" y2="344" stroke="#C4962A" stroke-width="7" stroke-linecap="round"/>
  <line x1="302" y1="284" x2="318" y2="348" stroke="#C4962A" stroke-width="7" stroke-linecap="round"/>
  <!-- Wheat stalk -->
  <line x1="256" y1="98" x2="256" y2="178" stroke="#E8B84B" stroke-width="8" stroke-linecap="round"/>
  <ellipse cx="256" cy="88" rx="14" ry="22" fill="#E8B84B"/>
  <ellipse cx="228" cy="118" rx="12" ry="20" fill="#E8B84B" transform="rotate(-30 228 118)"/>
  <ellipse cx="284" cy="118" rx="12" ry="20" fill="#E8B84B" transform="rotate(30 284 118)"/>
  <ellipse cx="214" cy="148" rx="10" ry="17" fill="#E8B84B" transform="rotate(-20 214 148)"/>
  <ellipse cx="298" cy="148" rx="10" ry="17" fill="#E8B84B" transform="rotate(20 298 148)"/>
</svg>
